<svg xmlns="http://www.w3.org/2000/svg" width="200" height="200" class="icon" viewBox="0 0 1024 1024"><path fill="#1296db" d="M740.645 892.05a42.94 42.94 0 0 0 22.528-6.144 38.254 38.254 0 0 0 10.24-54.272L550.18 502.93l223.232-327.68a45.4 45.4 0 0 0 7.168-22.528 38.254 38.254 0 0 0-38.912-38.912c-14.336 0-25.6 5.852-33.792 17.408L507.173 441.49l-199.68-310.272a38.25 38.25 0 0 0-32.768-17.408 46.7 46.7 0 0 0-22.528 6.144 38.25 38.25 0 0 0-17.408 32.768c0 6.803 2.413 14.336 7.168 22.528l223.232 327.68-223.232 328.704a38.254 38.254 0 0 0 10.24 54.272 46.7 46.7 0 0 0 22.528 6.144c13.677 0 24.576-5.851 32.768-17.408l199.68-310.272 200.704 310.272a38.25 38.25 0 0 0 32.768 17.408"/></svg>